<svg xmlns="http://www.w3.org/2000/svg" xmlns:xlink="http://www.w3.org/1999/xlink" width="300" zoomAndPan="magnify" viewBox="0 0 224.87999 225" height="300" preserveAspectRatio="xMidYMid meet" version="1.0"><defs><clipPath id="2c2dae6f20"><path d="M 34 0.0585938 L 48 0.0585938 L 48 54 L 34 54 Z M 34 0.0585938 " clip-rule="nonzero"/></clipPath><clipPath id="f4fc261279"><path d="M 21 25 L 81 25 L 81 72.769531 L 21 72.769531 Z M 21 25 " clip-rule="nonzero"/></clipPath><clipPath id="789f72fb8d"><path d="M 0 48 L 25 48 L 25 72.769531 L 0 72.769531 Z M 0 48 " clip-rule="nonzero"/></clipPath><clipPath id="db9965b6d2"><path d="M 47 31 L 112.441406 31 L 112.441406 72.769531 L 47 72.769531 Z M 47 31 " clip-rule="nonzero"/></clipPath><clipPath id="746203c0fe"><path d="M 180 67.523438 L 183 67.523438 L 183 74 L 180 74 Z M 180 67.523438 " clip-rule="nonzero"/></clipPath><clipPath id="84cc11e570"><path d="M 189 67.523438 L 192 67.523438 L 192 74 L 189 74 Z M 189 67.523438 " clip-rule="nonzero"/></clipPath><clipPath id="24c97ec3eb"><path d="M 199 67.523438 L 202 67.523438 L 202 74 L 199 74 Z M 199 67.523438 " clip-rule="nonzero"/></clipPath><clipPath id="f2e123ab2c"><path d="M 208 67.523438 L 211 67.523438 L 211 74 L 208 74 Z M 208 67.523438 " clip-rule="nonzero"/></clipPath><clipPath id="2421bc8ab0"><path d="M 179 186 L 221 186 L 221 224.9375 L 179 224.9375 Z M 179 186 " clip-rule="nonzero"/></clipPath><clipPath id="1c5f0131fd"><path d="M 220 186 L 224.761719 186 L 224.761719 224.9375 L 220 224.9375 Z M 220 186 " clip-rule="nonzero"/></clipPath><clipPath id="12258c1e57"><path d="M 67.464844 176 L 130 176 L 130 209 L 67.464844 209 Z M 67.464844 176 " clip-rule="nonzero"/></clipPath></defs><path fill="#00003c" d="M 63.605469 9.4375 L 63.605469 17.125 L 57.453125 12.613281 L 57.453125 42.59375 L 43.464844 54.894531 L 43.363281 54.84375 L 43.363281 13.691406 L 47.511719 10.769531 L 57.25 3.902344 Z M 63.605469 9.4375 " fill-opacity="1" fill-rule="nonzero"/><g clip-path="url(#2c2dae6f20)"><path fill="#00003c" d="M 47.511719 0.0585938 L 47.511719 8.722656 L 41.671875 12.820312 L 41.671875 53.816406 L 34.394531 49.5625 L 34.394531 8.464844 Z M 47.511719 0.0585938 " fill-opacity="1" fill-rule="nonzero"/></g><path fill="#00003c" d="M 73.507812 56.339844 L 78.851562 56.339844 L 78.851562 61.679688 L 73.507812 61.679688 Z M 73.507812 56.339844 " fill-opacity="1" fill-rule="nonzero"/><path fill="#00003c" d="M 81.105469 56.339844 L 86.449219 56.339844 L 86.449219 61.679688 L 81.105469 61.679688 Z M 81.105469 56.339844 " fill-opacity="1" fill-rule="nonzero"/><path fill="#00003c" d="M 73.507812 63.730469 L 78.851562 63.730469 L 78.851562 69.074219 L 73.507812 69.074219 Z M 73.507812 63.730469 " fill-opacity="1" fill-rule="nonzero"/><path fill="#00003c" d="M 81.105469 63.730469 L 86.449219 63.730469 L 86.449219 69.074219 L 81.105469 69.074219 Z M 81.105469 63.730469 " fill-opacity="1" fill-rule="nonzero"/><path fill="#00003c" d="M 21.636719 60.085938 L 25.605469 60.085938 L 25.605469 64.054688 L 21.636719 64.054688 Z M 21.636719 60.085938 " fill-opacity="1" fill-rule="nonzero"/><path fill="#00003c" d="M 27.28125 60.085938 L 31.25 60.085938 L 31.25 64.054688 L 27.28125 64.054688 Z M 27.28125 60.085938 " fill-opacity="1" fill-rule="nonzero"/><path fill="#00003c" d="M 21.636719 65.578125 L 25.605469 65.578125 L 25.605469 69.546875 L 21.636719 69.546875 Z M 21.636719 65.578125 " fill-opacity="1" fill-rule="nonzero"/><path fill="#00003c" d="M 27.28125 65.578125 L 31.25 65.578125 L 31.25 69.546875 L 27.28125 69.546875 Z M 27.28125 65.578125 " fill-opacity="1" fill-rule="nonzero"/><path fill="#00003c" d="M 33.011719 16.203125 L 33.011719 22.25 L 28.195312 18.507812 L 28.195312 45.921875 L 22.300781 42.4375 C 22.300781 29.628906 22.300781 17.125 22.300781 17.125 L 28.605469 12.613281 Z M 33.011719 16.203125 " fill-opacity="1" fill-rule="nonzero"/><path fill="#00003c" d="M 76.929688 16.460938 L 76.929688 25.527344 L 63.605469 37.210938 L 63.605469 18.507812 L 72.007812 12.613281 Z M 76.929688 16.460938 " fill-opacity="1" fill-rule="nonzero"/><g clip-path="url(#f4fc261279)"><path fill="#ffd700" d="M 80.699219 25.832031 L 63.605469 46.640625 L 57.453125 54.738281 L 43.363281 72.675781 L 34.394531 60.988281 L 28.195312 53.253906 L 22.300781 45.875 L 21.636719 45.050781 L 22.300781 45.460938 L 28.195312 48.898438 L 34.394531 52.535156 L 41.671875 56.839844 L 43.363281 57.8125 L 43.773438 58.070312 L 57.453125 46.027344 L 63.605469 40.59375 Z M 80.699219 25.832031 " fill-opacity="1" fill-rule="nonzero"/></g><g clip-path="url(#789f72fb8d)"><path fill="#00003c" d="M 24.511719 53.785156 L 20.214844 48.097656 L 0.00390625 72.660156 L 7.289062 72.660156 L 7.277344 72.675781 L 12.824219 72.675781 L 12.824219 67.203125 Z M 24.511719 53.785156 " fill-opacity="1" fill-rule="nonzero"/></g><g clip-path="url(#db9965b6d2)"><path fill="#00003c" d="M 82.105469 34.703125 L 80.003906 31.984375 L 77.851562 34.703125 L 47.511719 72.675781 L 62.640625 72.675781 L 62.640625 65.71875 L 80.003906 43.925781 L 97.367188 65.765625 L 97.367188 72.675781 L 112.441406 72.675781 Z M 82.105469 34.703125 " fill-opacity="1" fill-rule="nonzero"/></g><path fill="#fa5879" d="M 211.140625 70.648438 L 179.875 70.648438 C 176.652344 70.648438 174.039062 73.261719 174.039062 76.484375 L 174.039062 83.152344 L 216.976562 83.152344 L 216.976562 76.484375 C 216.976562 73.261719 214.363281 70.648438 211.140625 70.648438 Z M 211.140625 70.648438 " fill-opacity="1" fill-rule="nonzero"/><path fill="#ffccba" d="M 179.875 114.824219 L 211.140625 114.824219 C 214.363281 114.824219 216.976562 112.210938 216.976562 108.988281 L 216.976562 83.152344 L 174.039062 83.152344 L 174.039062 108.988281 C 174.039062 112.210938 176.652344 114.824219 179.875 114.824219 Z M 179.875 114.824219 " fill-opacity="1" fill-rule="nonzero"/><path fill="#ffffff" d="M 179.875 112.949219 C 176.652344 112.949219 174.039062 110.488281 174.039062 107.457031 L 174.039062 83.152344 L 216.976562 83.152344 L 216.976562 102.945312 L 206.867188 112.949219 Z M 179.875 112.949219 " fill-opacity="1" fill-rule="nonzero"/><path fill="#fe8d00" d="M 216.976562 102.945312 L 206.867188 112.949219 L 206.867188 105.191406 C 206.867188 103.949219 207.871094 102.945312 209.113281 102.945312 Z M 216.976562 102.945312 " fill-opacity="1" fill-rule="nonzero"/><path fill="#ffccba" d="M 178.832031 89.722656 C 178.832031 89.316406 179.164062 88.984375 179.570312 88.984375 L 181.429688 88.984375 C 181.835938 88.984375 182.167969 89.316406 182.167969 89.722656 L 182.167969 91.582031 C 182.167969 91.988281 181.835938 92.320312 181.429688 92.320312 L 179.570312 92.320312 C 179.164062 92.320312 178.832031 91.988281 178.832031 91.582031 Z M 178.832031 89.722656 " fill-opacity="1" fill-rule="nonzero"/><path fill="#ffccba" d="M 183.835938 89.722656 C 183.835938 89.316406 184.164062 88.984375 184.574219 88.984375 L 186.429688 88.984375 C 186.839844 88.984375 187.167969 89.316406 187.167969 89.722656 L 187.167969 91.582031 C 187.167969 91.988281 186.839844 92.320312 186.429688 92.320312 L 184.574219 92.320312 C 184.164062 92.320312 183.835938 91.988281 183.835938 91.582031 Z M 183.835938 89.722656 " fill-opacity="1" fill-rule="nonzero"/><path fill="#ffccba" d="M 188.835938 89.722656 C 188.835938 89.316406 189.167969 88.984375 189.578125 88.984375 L 191.433594 88.984375 C 191.839844 88.984375 192.171875 89.316406 192.171875 89.722656 L 192.171875 91.582031 C 192.171875 91.988281 191.839844 92.320312 191.433594 92.320312 L 189.578125 92.320312 C 189.167969 92.320312 188.835938 91.988281 188.835938 91.582031 Z M 188.835938 89.722656 " fill-opacity="1" fill-rule="nonzero"/><path fill="#ffccba" d="M 193.839844 89.722656 C 193.839844 89.316406 194.171875 88.984375 194.578125 88.984375 L 196.4375 88.984375 C 196.84375 88.984375 197.175781 89.316406 197.175781 89.722656 L 197.175781 91.582031 C 197.175781 91.988281 196.84375 92.320312 196.4375 92.320312 L 194.578125 92.320312 C 194.171875 92.320312 193.839844 91.988281 193.839844 91.582031 Z M 193.839844 89.722656 " fill-opacity="1" fill-rule="nonzero"/><path fill="#ffccba" d="M 193.839844 85.140625 C 193.839844 84.730469 194.171875 84.402344 194.578125 84.402344 L 196.4375 84.402344 C 196.84375 84.402344 197.175781 84.730469 197.175781 85.140625 L 197.175781 86.996094 C 197.175781 87.40625 196.84375 87.734375 196.4375 87.734375 L 194.578125 87.734375 C 194.171875 87.734375 193.839844 87.40625 193.839844 86.996094 Z M 193.839844 85.140625 " fill-opacity="1" fill-rule="nonzero"/><path fill="#ffccba" d="M 198.84375 89.722656 C 198.84375 89.316406 199.175781 88.984375 199.582031 88.984375 L 201.4375 88.984375 C 201.847656 88.984375 202.179688 89.316406 202.179688 89.722656 L 202.179688 91.582031 C 202.179688 91.988281 201.847656 92.320312 201.4375 92.320312 L 199.582031 92.320312 C 199.175781 92.320312 198.84375 91.988281 198.84375 91.582031 Z M 198.84375 89.722656 " fill-opacity="1" fill-rule="nonzero"/><path fill="#ffccba" d="M 198.84375 85.140625 C 198.84375 84.730469 199.175781 84.402344 199.582031 84.402344 L 201.4375 84.402344 C 201.847656 84.402344 202.179688 84.730469 202.179688 85.140625 L 202.179688 86.996094 C 202.179688 87.40625 201.847656 87.734375 201.4375 87.734375 L 199.582031 87.734375 C 199.175781 87.734375 198.84375 87.40625 198.84375 86.996094 Z M 198.84375 85.140625 " fill-opacity="1" fill-rule="nonzero"/><path fill="#ffccba" d="M 203.847656 89.722656 C 203.847656 89.316406 204.175781 88.984375 204.585938 88.984375 L 206.441406 88.984375 C 206.851562 88.984375 207.179688 89.316406 207.179688 89.722656 L 207.179688 91.582031 C 207.179688 91.988281 206.851562 92.320312 206.441406 92.320312 L 204.585938 92.320312 C 204.175781 92.320312 203.847656 91.988281 203.847656 91.582031 Z M 203.847656 89.722656 " fill-opacity="1" fill-rule="nonzero"/><path fill="#ffccba" d="M 203.847656 85.140625 C 203.847656 84.730469 204.175781 84.402344 204.585938 84.402344 L 206.441406 84.402344 C 206.851562 84.402344 207.179688 84.730469 207.179688 85.140625 L 207.179688 86.996094 C 207.179688 87.40625 206.851562 87.734375 206.441406 87.734375 L 204.585938 87.734375 C 204.175781 87.734375 203.847656 87.40625 203.847656 86.996094 Z M 203.847656 85.140625 " fill-opacity="1" fill-rule="nonzero"/><path fill="#fa5879" d="M 208.847656 89.722656 C 208.847656 89.316406 209.179688 88.984375 209.585938 88.984375 L 211.445312 88.984375 C 211.851562 88.984375 212.183594 89.316406 212.183594 89.722656 L 212.183594 91.582031 C 212.183594 91.988281 211.851562 92.320312 211.445312 92.320312 L 209.585938 92.320312 C 209.179688 92.320312 208.847656 91.988281 208.847656 91.582031 Z M 208.847656 89.722656 " fill-opacity="1" fill-rule="nonzero"/><path fill="#fa5879" d="M 208.847656 85.140625 C 208.847656 84.730469 209.179688 84.402344 209.585938 84.402344 L 211.445312 84.402344 C 211.851562 84.402344 212.183594 84.730469 212.183594 85.140625 L 212.183594 86.996094 C 212.183594 87.40625 211.851562 87.734375 211.445312 87.734375 L 209.585938 87.734375 C 209.179688 87.734375 208.847656 87.40625 208.847656 86.996094 Z M 208.847656 85.140625 " fill-opacity="1" fill-rule="nonzero"/><path fill="#ffccba" d="M 178.832031 99.101562 C 178.832031 98.691406 179.164062 98.363281 179.570312 98.363281 L 181.429688 98.363281 C 181.835938 98.363281 182.167969 98.691406 182.167969 99.101562 L 182.167969 100.957031 C 182.167969 101.363281 181.835938 101.695312 181.429688 101.695312 L 179.570312 101.695312 C 179.164062 101.695312 178.832031 101.363281 178.832031 100.957031 Z M 178.832031 99.101562 " fill-opacity="1" fill-rule="nonzero"/><path fill="#ffccba" d="M 183.835938 99.101562 C 183.835938 98.691406 184.164062 98.363281 184.574219 98.363281 L 186.429688 98.363281 C 186.839844 98.363281 187.167969 98.691406 187.167969 99.101562 L 187.167969 100.957031 C 187.167969 101.363281 186.839844 101.695312 186.429688 101.695312 L 184.574219 101.695312 C 184.164062 101.695312 183.835938 101.363281 183.835938 100.957031 Z M 183.835938 99.101562 " fill-opacity="1" fill-rule="nonzero"/><path fill="#ffccba" d="M 188.835938 99.101562 C 188.835938 98.691406 189.167969 98.363281 189.578125 98.363281 L 191.433594 98.363281 C 191.839844 98.363281 192.171875 98.691406 192.171875 99.101562 L 192.171875 100.957031 C 192.171875 101.363281 191.839844 101.695312 191.433594 101.695312 L 189.578125 101.695312 C 189.167969 101.695312 188.835938 101.363281 188.835938 100.957031 Z M 188.835938 99.101562 " fill-opacity="1" fill-rule="nonzero"/><path fill="#ffccba" d="M 193.839844 99.101562 C 193.839844 98.691406 194.171875 98.363281 194.578125 98.363281 L 196.4375 98.363281 C 196.84375 98.363281 197.175781 98.691406 197.175781 99.101562 L 197.175781 100.957031 C 197.175781 101.363281 196.84375 101.695312 196.4375 101.695312 L 194.578125 101.695312 C 194.171875 101.695312 193.839844 101.363281 193.839844 100.957031 Z M 193.839844 99.101562 " fill-opacity="1" fill-rule="nonzero"/><path fill="#ffccba" d="M 198.84375 99.101562 C 198.84375 98.691406 199.175781 98.363281 199.582031 98.363281 L 201.4375 98.363281 C 201.847656 98.363281 202.179688 98.691406 202.179688 99.101562 L 202.179688 100.957031 C 202.179688 101.363281 201.847656 101.695312 201.4375 101.695312 L 199.582031 101.695312 C 199.175781 101.695312 198.84375 101.363281 198.84375 100.957031 Z M 198.84375 99.101562 " fill-opacity="1" fill-rule="nonzero"/><path fill="#ffccba" d="M 203.847656 99.101562 C 203.847656 98.691406 204.175781 98.363281 204.585938 98.363281 L 206.441406 98.363281 C 206.851562 98.363281 207.179688 98.691406 207.179688 99.101562 L 207.179688 100.957031 C 207.179688 101.363281 206.851562 101.695312 206.441406 101.695312 L 204.585938 101.695312 C 204.175781 101.695312 203.847656 101.363281 203.847656 100.957031 Z M 203.847656 99.101562 " fill-opacity="1" fill-rule="nonzero"/><path fill="#fa5879" d="M 208.847656 99.101562 C 208.847656 98.691406 209.179688 98.363281 209.585938 98.363281 L 211.445312 98.363281 C 211.851562 98.363281 212.183594 98.691406 212.183594 99.101562 L 212.183594 100.957031 C 212.183594 101.363281 211.851562 101.695312 211.445312 101.695312 L 209.585938 101.695312 C 209.179688 101.695312 208.847656 101.363281 208.847656 100.957031 Z M 208.847656 99.101562 " fill-opacity="1" fill-rule="nonzero"/><path fill="#ffccba" d="M 178.832031 94.515625 C 178.832031 94.109375 179.164062 93.777344 179.570312 93.777344 L 181.429688 93.777344 C 181.835938 93.777344 182.167969 94.109375 182.167969 94.515625 L 182.167969 96.371094 C 182.167969 96.78125 181.835938 97.113281 181.429688 97.113281 L 179.570312 97.113281 C 179.164062 97.113281 178.832031 96.78125 178.832031 96.371094 Z M 178.832031 94.515625 " fill-opacity="1" fill-rule="nonzero"/><path fill="#ffccba" d="M 183.835938 94.515625 C 183.835938 94.109375 184.164062 93.777344 184.574219 93.777344 L 186.429688 93.777344 C 186.839844 93.777344 187.167969 94.109375 187.167969 94.515625 L 187.167969 96.371094 C 187.167969 96.78125 186.839844 97.113281 186.429688 97.113281 L 184.574219 97.113281 C 184.164062 97.113281 183.835938 96.78125 183.835938 96.371094 Z M 183.835938 94.515625 " fill-opacity="1" fill-rule="nonzero"/><path fill="#ffccba" d="M 188.835938 94.515625 C 188.835938 94.109375 189.167969 93.777344 189.578125 93.777344 L 191.433594 93.777344 C 191.839844 93.777344 192.171875 94.109375 192.171875 94.515625 L 192.171875 96.371094 C 192.171875 96.78125 191.839844 97.113281 191.433594 97.113281 L 189.578125 97.113281 C 189.167969 97.113281 188.835938 96.78125 188.835938 96.371094 Z M 188.835938 94.515625 " fill-opacity="1" fill-rule="nonzero"/><path fill="#ffccba" d="M 193.839844 94.515625 C 193.839844 94.109375 194.171875 93.777344 194.578125 93.777344 L 196.4375 93.777344 C 196.84375 93.777344 197.175781 94.109375 197.175781 94.515625 L 197.175781 96.371094 C 197.175781 96.78125 196.84375 97.113281 196.4375 97.113281 L 194.578125 97.113281 C 194.171875 97.113281 193.839844 96.78125 193.839844 96.371094 Z M 193.839844 94.515625 " fill-opacity="1" fill-rule="nonzero"/><path fill="#ffccba" d="M 198.84375 94.515625 C 198.84375 94.109375 199.175781 93.777344 199.582031 93.777344 L 201.4375 93.777344 C 201.847656 93.777344 202.179688 94.109375 202.179688 94.515625 L 202.179688 96.371094 C 202.179688 96.78125 201.847656 97.113281 201.4375 97.113281 L 199.582031 97.113281 C 199.175781 97.113281 198.84375 96.78125 198.84375 96.371094 Z M 198.84375 94.515625 " fill-opacity="1" fill-rule="nonzero"/><path fill="#ffccba" d="M 203.847656 94.515625 C 203.847656 94.109375 204.175781 93.777344 204.585938 93.777344 L 206.441406 93.777344 C 206.851562 93.777344 207.179688 94.109375 207.179688 94.515625 L 207.179688 96.371094 C 207.179688 96.78125 206.851562 97.113281 206.441406 97.113281 L 204.585938 97.113281 C 204.175781 97.113281 203.847656 96.78125 203.847656 96.371094 Z M 203.847656 94.515625 " fill-opacity="1" fill-rule="nonzero"/><path fill="#fa5879" d="M 208.847656 94.515625 C 208.847656 94.109375 209.179688 93.777344 209.585938 93.777344 L 211.445312 93.777344 C 211.851562 93.777344 212.183594 94.109375 212.183594 94.515625 L 212.183594 96.371094 C 212.183594 96.78125 211.851562 97.113281 211.445312 97.113281 L 209.585938 97.113281 C 209.179688 97.113281 208.847656 96.78125 208.847656 96.371094 Z M 208.847656 94.515625 " fill-opacity="1" fill-rule="nonzero"/><path fill="#ffccba" d="M 178.832031 103.894531 C 178.832031 103.484375 179.164062 103.15625 179.570312 103.15625 L 181.429688 103.15625 C 181.835938 103.15625 182.167969 103.484375 182.167969 103.894531 L 182.167969 105.75 C 182.167969 106.15625 181.835938 106.488281 181.429688 106.488281 L 179.570312 106.488281 C 179.164062 106.488281 178.832031 106.15625 178.832031 105.75 Z M 178.832031 103.894531 " fill-opacity="1" fill-rule="nonzero"/><path fill="#ffccba" d="M 183.835938 103.894531 C 183.835938 103.484375 184.164062 103.15625 184.574219 103.15625 L 186.429688 103.15625 C 186.839844 103.15625 187.167969 103.484375 187.167969 103.894531 L 187.167969 105.75 C 187.167969 106.15625 186.839844 106.488281 186.429688 106.488281 L 184.574219 106.488281 C 184.164062 106.488281 183.835938 106.15625 183.835938 105.75 Z M 183.835938 103.894531 " fill-opacity="1" fill-rule="nonzero"/><path fill="#ffccba" d="M 188.835938 103.894531 C 188.835938 103.484375 189.167969 103.15625 189.578125 103.15625 L 191.433594 103.15625 C 191.839844 103.15625 192.171875 103.484375 192.171875 103.894531 L 192.171875 105.75 C 192.171875 106.15625 191.839844 106.488281 191.433594 106.488281 L 189.578125 106.488281 C 189.167969 106.488281 188.835938 106.15625 188.835938 105.75 Z M 188.835938 103.894531 " fill-opacity="1" fill-rule="nonzero"/><path fill="#ffccba" d="M 193.839844 103.894531 C 193.839844 103.484375 194.171875 103.15625 194.578125 103.15625 L 196.4375 103.15625 C 196.84375 103.15625 197.175781 103.484375 197.175781 103.894531 L 197.175781 105.75 C 197.175781 106.15625 196.84375 106.488281 196.4375 106.488281 L 194.578125 106.488281 C 194.171875 106.488281 193.839844 106.15625 193.839844 105.75 Z M 193.839844 103.894531 " fill-opacity="1" fill-rule="nonzero"/><path fill="#ffccba" d="M 198.84375 103.894531 C 198.84375 103.484375 199.175781 103.15625 199.582031 103.15625 L 201.4375 103.15625 C 201.847656 103.15625 202.179688 103.484375 202.179688 103.894531 L 202.179688 105.75 C 202.179688 106.15625 201.847656 106.488281 201.4375 106.488281 L 199.582031 106.488281 C 199.175781 106.488281 198.84375 106.15625 198.84375 105.75 Z M 198.84375 103.894531 " fill-opacity="1" fill-rule="nonzero"/><path fill="#ffffff" d="M 184.042969 73.878906 C 184.042969 74.398438 183.0625 74.816406 181.855469 74.816406 C 180.644531 74.816406 179.664062 74.398438 179.664062 73.878906 C 179.664062 73.359375 180.644531 72.941406 181.855469 72.941406 C 183.0625 72.941406 184.042969 73.359375 184.042969 73.878906 Z M 184.042969 73.878906 " fill-opacity="1" fill-rule="nonzero"/><path fill="#ffffff" d="M 193.214844 73.878906 C 193.214844 74.398438 192.234375 74.816406 191.027344 74.816406 C 189.816406 74.816406 188.835938 74.398438 188.835938 73.878906 C 188.835938 73.359375 189.816406 72.941406 191.027344 72.941406 C 192.234375 72.941406 193.214844 73.359375 193.214844 73.878906 Z M 193.214844 73.878906 " fill-opacity="1" fill-rule="nonzero"/><path fill="#ffffff" d="M 202.59375 73.878906 C 202.59375 74.398438 201.613281 74.816406 200.40625 74.816406 C 199.195312 74.816406 198.21875 74.398438 198.21875 73.878906 C 198.21875 73.359375 199.195312 72.941406 200.40625 72.941406 C 201.613281 72.941406 202.59375 73.359375 202.59375 73.878906 Z M 202.59375 73.878906 " fill-opacity="1" fill-rule="nonzero"/><path fill="#ffffff" d="M 211.347656 73.878906 C 211.347656 74.398438 210.367188 74.816406 209.160156 74.816406 C 207.949219 74.816406 206.972656 74.398438 206.972656 73.878906 C 206.972656 73.359375 207.949219 72.941406 209.160156 72.941406 C 210.367188 72.941406 211.347656 73.359375 211.347656 73.878906 Z M 211.347656 73.878906 " fill-opacity="1" fill-rule="nonzero"/><g clip-path="url(#746203c0fe)"><path fill="#3a3683" d="M 180.917969 68.566406 C 180.917969 67.992188 181.382812 67.523438 181.960938 67.523438 C 182.535156 67.523438 183 67.992188 183 68.566406 L 183 72.941406 C 183 73.515625 182.535156 73.984375 181.960938 73.984375 C 181.382812 73.984375 180.917969 73.515625 180.917969 72.941406 Z M 180.917969 68.566406 " fill-opacity="1" fill-rule="nonzero"/></g><g clip-path="url(#84cc11e570)"><path fill="#3a3683" d="M 189.878906 68.566406 C 189.878906 67.992188 190.347656 67.523438 190.921875 67.523438 C 191.496094 67.523438 191.964844 67.992188 191.964844 68.566406 L 191.964844 72.941406 C 191.964844 73.515625 191.496094 73.984375 190.921875 73.984375 C 190.347656 73.984375 189.878906 73.515625 189.878906 72.941406 Z M 189.878906 68.566406 " fill-opacity="1" fill-rule="nonzero"/></g><g clip-path="url(#24c97ec3eb)"><path fill="#3a3683" d="M 199.257812 68.566406 C 199.257812 67.992188 199.726562 67.523438 200.300781 67.523438 C 200.875 67.523438 201.34375 67.992188 201.34375 68.566406 L 201.34375 72.941406 C 201.34375 73.515625 200.875 73.984375 200.300781 73.984375 C 199.726562 73.984375 199.257812 73.515625 199.257812 72.941406 Z M 199.257812 68.566406 " fill-opacity="1" fill-rule="nonzero"/></g><g clip-path="url(#f2e123ab2c)"><path fill="#3a3683" d="M 208.222656 68.566406 C 208.222656 67.992188 208.6875 67.523438 209.265625 67.523438 C 209.839844 67.523438 210.308594 67.992188 210.308594 68.566406 L 210.308594 72.941406 C 210.308594 73.515625 209.839844 73.984375 209.265625 73.984375 C 208.6875 73.984375 208.222656 73.515625 208.222656 72.941406 Z M 208.222656 68.566406 " fill-opacity="1" fill-rule="nonzero"/></g><g clip-path="url(#2421bc8ab0)"><path fill="#8a86d3" d="M 220.074219 186.878906 L 179.042969 186.878906 L 179.042969 224.941406 L 220.074219 224.941406 Z M 220.074219 186.878906 " fill-opacity="1" fill-rule="nonzero"/></g><g clip-path="url(#1c5f0131fd)"><path fill="#2d3250" d="M 220.074219 186.878906 L 224.878906 189.828125 L 224.878906 224.941406 L 220.074219 224.941406 Z M 220.074219 186.878906 " fill-opacity="1" fill-rule="nonzero"/></g><path fill="#8a86d3" d="M 187.90625 208.691406 C 186.027344 202.710938 183.105469 194.8125 179.574219 188.566406 L 179.25 188.746094 C 182.765625 194.964844 185.679688 202.832031 187.554688 208.800781 Z M 187.90625 208.691406 " fill-opacity="1" fill-rule="evenodd"/><path fill="#f29a77" d="M 193.246094 131.417969 C 193.726562 130.640625 194.894531 129.496094 195.714844 131.128906 C 196.53125 132.753906 195.527344 133.722656 194.644531 134.253906 L 195.757812 134.832031 C 195.316406 138.496094 195.242188 140.351562 198.460938 141.363281 C 194.835938 145.835938 189.632812 145.71875 188.5 140.523438 C 189.628906 140.867188 189.222656 138.453125 189.222656 138.453125 C 187.121094 138.160156 185.996094 134.570312 185.996094 130.96875 C 186.164062 130.960938 186.335938 130.925781 186.480469 130.890625 C 187.398438 131.863281 188.25 131.488281 188.328125 131.148438 C 190.003906 132.480469 190.949219 130.460938 191.390625 129.46875 C 192.199219 130.425781 192.300781 130.671875 192.691406 132.5 C 192.730469 132.328125 192.894531 131.875 193.246094 131.417969 Z M 193.246094 131.417969 " fill-opacity="1" fill-rule="nonzero"/><path fill="#8c1a00" d="M 192.65625 132.769531 L 193.320312 135.847656 C 192.804688 136.910156 191.253906 138.941406 189.171875 138.558594 C 187.21875 138.160156 186.558594 135.941406 186.472656 134.882812 C 186.535156 135.273438 186.765625 135.820312 187.277344 136.410156 C 187.671875 135.835938 188 135.726562 189.386719 135.921875 C 190.4375 136.070312 191.796875 136 192.308594 136.488281 C 192.433594 136.390625 192.546875 136.300781 192.640625 136.222656 Z M 192.65625 132.769531 " fill-opacity="1" fill-rule="nonzero"/><path fill="#8c1a00" d="M 195.714844 131.128906 C 194.894531 129.496094 193.726562 130.640625 193.246094 131.417969 C 192.894531 131.875 192.730469 132.328125 192.691406 132.5 C 192.300781 130.671875 192.199219 130.425781 191.390625 129.46875 C 190.949219 130.460938 190.003906 132.480469 188.328125 131.148438 C 188.246094 131.488281 187.398438 131.863281 186.480469 130.890625 C 186.335938 130.925781 186.164062 130.960938 185.996094 130.96875 C 185.257812 131.011719 184.503906 130.644531 185.445312 128.632812 C 184.144531 127.074219 185.703125 123.914062 188.222656 124.691406 C 189.820312 122.550781 191.464844 122.507812 195.457031 124.335938 C 196.410156 124.46875 196.519531 125.402344 196.457031 125.847656 C 198.808594 126.390625 197.820312 129.84375 197.332031 131.144531 C 197.1875 131.53125 196.992188 131.625 196.785156 131.554688 C 196.507812 132.335938 196.109375 133.476562 195.757812 134.832031 L 194.644531 134.253906 C 195.527344 133.722656 196.53125 132.753906 195.714844 131.128906 Z M 195.714844 131.128906 " fill-opacity="1" fill-rule="nonzero"/><path fill="#ffc928" d="M 217.671875 164.707031 C 218.597656 159.535156 213.820312 148.449219 210.121094 144.015625 C 208.183594 141.691406 202.867188 140.246094 198.265625 139.488281 C 196.046875 142.855469 190.835938 147.53125 187.730469 139.316406 C 184.523438 139.847656 181.140625 141.515625 176.0625 150.851562 C 173.976562 154.988281 179.226562 161.199219 183.238281 157.589844 C 183.1875 162.074219 182.738281 165.816406 181.445312 166.925781 C 180.152344 168.035156 181.445312 169.050781 181.074219 169.328125 C 179.003906 170.878906 179.042969 171.730469 180.519531 171.914062 C 183.972656 173.269531 191.269531 175.019531 200.882812 173.390625 C 201.988281 173.203125 206.796875 174.511719 207.90625 174.128906 C 209.355469 173.632812 208.273438 172.835938 208.273438 172.097656 C 208.734375 170.875 209.039062 169.398438 209.230469 167.976562 C 214.417969 168.78125 217.261719 166.996094 217.671875 164.707031 Z M 217.671875 164.707031 " fill-opacity="1" fill-rule="nonzero"/><path fill="#8c1a00" d="M 205.101562 166.925781 C 209.539062 163.925781 208.984375 157.273438 205.84375 157.273438 C 203.796875 157.273438 202.894531 167.222656 205.101562 166.925781 Z M 205.101562 166.925781 " fill-opacity="1" fill-rule="nonzero"/><path fill="#2d3250" d="M 187.730469 139.316406 C 190.835938 147.53125 196.046875 142.855469 198.265625 139.488281 C 197.515625 139.367188 196.253906 139.125 195.539062 139.03125 C 192.027344 144.210938 189.945312 141.058594 189.292969 139.039062 C 188.878906 139.097656 188.070312 139.261719 187.730469 139.316406 Z M 187.730469 139.316406 " fill-opacity="1" fill-rule="nonzero"/><path fill="#f29a77" d="M 198.425781 158.925781 C 199.328125 158.460938 200.488281 158.152344 200.960938 158.058594 C 203.503906 158.804688 205.734375 158.050781 207.5625 158.195312 C 208.164062 159.019531 208.429688 160.304688 208.269531 161.691406 C 205.285156 161.863281 204.945312 163.34375 203.351562 162.253906 C 203.246094 162.933594 203.085938 163.808594 202.789062 163.554688 C 202.480469 163.292969 202.40625 162.242188 202.367188 161.527344 C 201.566406 160.894531 201.199219 160.988281 200.394531 160.804688 C 200.085938 161.585938 199.714844 163.363281 199.128906 163.121094 C 198.425781 162.832031 198.773438 160.226562 200.289062 159.503906 C 199.171875 159.71875 197.210938 160.902344 196.738281 160.660156 C 196.171875 160.371094 197.300781 159.503906 198.425781 158.925781 Z M 198.425781 158.925781 " fill-opacity="1" fill-rule="nonzero"/><path fill="#f29a77" d="M 165.28125 174.519531 L 164.335938 168.328125 L 166.367188 167.707031 L 168.386719 173.191406 Z M 165.28125 174.519531 " fill-opacity="1" fill-rule="nonzero"/><path fill="#8c1a00" d="M 209.332031 157.089844 L 212.679688 157.089844 C 212.785156 157.089844 212.867188 157.171875 212.867188 157.273438 C 212.867188 157.375 212.785156 157.457031 212.679688 157.457031 L 206.027344 157.457031 C 205.925781 157.457031 205.84375 157.375 205.84375 157.273438 C 205.84375 157.171875 205.925781 157.089844 206.027344 157.089844 L 208.960938 157.089844 L 208.363281 152.492188 C 208.351562 152.390625 208.421875 152.296875 208.523438 152.285156 C 208.625 152.273438 208.714844 152.34375 208.730469 152.445312 Z M 205.101562 166.925781 C 205.070312 167.023438 205.121094 167.125 205.21875 167.160156 C 206.601562 167.625 207.875 167.941406 209.035156 168.132812 C 209.132812 168.148438 209.230469 168.078125 209.246094 167.976562 C 209.261719 167.878906 209.191406 167.78125 209.089844 167.765625 C 207.953125 167.578125 206.703125 167.269531 205.339844 166.808594 C 205.242188 166.777344 205.136719 166.828125 205.101562 166.925781 Z M 205.101562 166.925781 " fill-opacity="1" fill-rule="evenodd"/><path fill="#8c1a00" d="M 164.335938 168.328125 C 163.769531 166.886719 163.136719 167.539062 162.894531 168.046875 L 150.578125 172.109375 L 157.601562 175.25 L 162.894531 176.726562 L 165.277344 174.519531 Z M 164.335938 168.328125 " fill-opacity="1" fill-rule="nonzero"/><path fill="#f29a77" d="M 167.8125 218.136719 L 162.519531 214.785156 L 163.386719 212.84375 L 168.851562 214.921875 Z M 167.8125 218.136719 " fill-opacity="1" fill-rule="nonzero"/><path fill="#8a86d3" d="M 196.230469 149.558594 L 169.613281 148.078125 L 171.832031 165.816406 L 198.449219 167.292969 L 206.765625 167.757812 L 206.765625 165.816406 L 198.203125 165.339844 Z M 196.230469 149.558594 " fill-opacity="1" fill-rule="nonzero"/><path fill="#8c1a00" d="M 153 217.320312 L 166.105469 223.183594 L 166.273438 223.257812 L 166.617188 222.121094 L 167.8125 218.132812 L 162.519531 214.785156 C 161.058594 214.265625 161.140625 215.171875 161.359375 215.6875 C 160.140625 215.652344 157.472656 216.425781 154.945312 216.925781 C 154.203125 217.070312 153.53125 217.207031 153 217.320312 Z M 153 217.320312 " fill-opacity="1" fill-rule="nonzero"/><path fill="#2d3250" d="M 189.75 161.761719 C 195.8125 161.910156 205.089844 176.914062 208.417969 173.769531 C 208.417969 186.335938 207.675781 187.996094 198.066406 187.996094 C 196.292969 188.03125 184.976562 187.273438 179.539062 186.890625 C 178.789062 192.746094 177.699219 194.183594 177.363281 195.019531 C 176.996094 195.941406 173.667969 206.84375 173.851562 208.875 C 174 210.5 173.300781 211.03125 172.929688 211.09375 C 173.371094 214.195312 171.757812 216.328125 170.894531 217.003906 C 167.9375 216.5625 163.378906 214.601562 161.46875 213.679688 C 162.515625 205.671875 165.019531 188.144531 166.644531 182.085938 C 167.210938 179.976562 167.925781 178.496094 168.671875 177.46875 C 168.269531 177.441406 167.957031 177.367188 167.753906 177.28125 C 166.128906 173.882812 165.96875 169.460938 166.089844 167.675781 C 179.769531 163.980469 182.171875 161.578125 189.75 161.761719 Z M 189.75 161.761719 " fill-opacity="1" fill-rule="nonzero"/><path fill="#8a86d3" d="M 175.1875 175.890625 C 176.113281 175.695312 177.15625 175.453125 178.1875 175.210938 C 179.460938 174.917969 180.71875 174.625 181.75 174.421875 L 181.710938 174.238281 C 180.6875 174.441406 179.414062 174.738281 178.140625 175.035156 C 177.097656 175.277344 176.050781 175.519531 175.128906 175.714844 L 175.105469 175.71875 L 175.089844 175.730469 C 174.363281 176.289062 173.6875 176.496094 173.175781 176.53125 C 172.921875 176.546875 172.707031 176.519531 172.546875 176.472656 C 172.382812 176.421875 172.296875 176.355469 172.269531 176.308594 L 172.21875 176.230469 L 172.140625 176.28125 C 171.179688 176.890625 170.570312 177.179688 170.078125 177.3125 C 169.585938 177.441406 169.203125 177.414062 168.679688 177.375 L 168.664062 177.5625 L 168.675781 177.5625 C 169.195312 177.597656 169.605469 177.625 170.125 177.488281 C 170.632812 177.355469 171.246094 177.0625 172.171875 176.480469 C 172.246094 176.550781 172.359375 176.609375 172.496094 176.648438 C 172.675781 176.703125 172.914062 176.730469 173.1875 176.714844 C 173.734375 176.679688 174.4375 176.460938 175.1875 175.890625 Z M 175.1875 175.890625 " fill-opacity="1" fill-rule="evenodd"/><path fill="#8a86d3" d="M 179.949219 183.648438 C 179.84375 184.800781 179.6875 186.445312 179.632812 186.902344 L 179.449219 186.878906 C 179.503906 186.425781 179.660156 184.789062 179.765625 183.640625 C 179.804688 183.199219 179.839844 182.832031 179.859375 182.632812 L 180.042969 182.648438 C 180.023438 182.847656 179.992188 183.214844 179.949219 183.648438 Z M 179.949219 183.648438 " fill-opacity="1" fill-rule="evenodd"/><path fill="#8a86d3" d="M 181.859375 174.398438 C 184.042969 173.972656 185.898438 173.636719 186.988281 173.492188 L 186.964844 173.308594 C 185.851562 173.457031 183.945312 173.800781 181.714844 174.238281 L 181.605469 174.261719 L 181.644531 174.363281 C 182.578125 176.746094 184.5 179.75 187.019531 182.351562 C 189.539062 184.953125 192.667969 187.167969 196.011719 187.960938 L 196.054688 187.78125 C 192.757812 186.996094 189.660156 184.8125 187.152344 182.222656 C 184.683594 179.671875 182.796875 176.742188 181.859375 174.398438 Z M 181.859375 174.398438 " fill-opacity="1" fill-rule="evenodd"/><path fill="#8a86d3" d="M 171.734375 169.914062 C 171.839844 170.351562 171.9375 170.804688 172.023438 171.273438 C 173.546875 170.863281 175.136719 170.445312 176.671875 170.0625 C 178.585938 169.578125 180.417969 169.144531 181.929688 168.832031 C 183.433594 168.519531 184.648438 168.320312 185.3125 168.320312 C 186.320312 168.320312 187.078125 168.5 187.761719 168.910156 C 188.4375 169.316406 189.023438 169.929688 189.707031 170.753906 C 189.984375 171.085938 190.28125 171.457031 190.609375 171.867188 C 191.902344 173.488281 193.695312 175.734375 196.78125 178.746094 C 198.367188 180.292969 199.699219 180.917969 200.800781 180.96875 C 201.886719 181.015625 202.804688 180.507812 203.578125 179.640625 C 204.355469 178.769531 204.96875 177.554688 205.417969 176.257812 C 205.691406 175.46875 205.90625 174.65625 206.0625 173.882812 C 206.242188 173.964844 206.417969 174.03125 206.585938 174.082031 C 206.429688 174.851562 206.214844 175.65625 205.941406 176.4375 C 205.476562 177.773438 204.835938 179.0625 203.992188 180.007812 C 203.144531 180.957031 202.074219 181.578125 200.773438 181.519531 C 199.484375 181.460938 198.027344 180.738281 196.394531 179.144531 C 193.277344 176.105469 191.464844 173.828125 190.167969 172.207031 C 189.84375 171.800781 189.550781 171.433594 189.28125 171.109375 C 188.601562 170.289062 188.066406 169.738281 187.476562 169.386719 C 186.898438 169.042969 186.246094 168.875 185.3125 168.875 C 184.714844 168.875 183.554688 169.0625 182.042969 169.375 C 180.542969 169.6875 178.71875 170.117188 176.808594 170.597656 C 175.257812 170.988281 173.65625 171.410156 172.117188 171.824219 C 172.355469 173.308594 172.46875 174.910156 172.34375 176.488281 C 172.269531 176.449219 172.21875 176.402344 172.191406 176.359375 C 172.042969 176.449219 171.90625 176.535156 171.777344 176.613281 C 171.917969 175.054688 171.8125 173.457031 171.578125 171.96875 C 169.683594 172.480469 167.914062 172.980469 166.511719 173.382812 C 166.476562 173.199219 166.441406 173.015625 166.410156 172.835938 C 167.820312 172.429688 169.589844 171.933594 171.484375 171.417969 C 171.398438 170.945312 171.300781 170.484375 171.195312 170.042969 C 170.851562 168.617188 170.421875 167.402344 170.046875 166.554688 C 170.226562 166.5 170.40625 166.445312 170.582031 166.394531 C 170.96875 167.28125 171.394531 168.507812 171.734375 169.914062 Z M 171.734375 169.914062 " fill-opacity="1" fill-rule="nonzero"/><path fill="#8a86d3" d="M 168.515625 208.871094 C 169.84375 209.34375 171.507812 210.042969 172.980469 210.746094 C 173.089844 210.796875 173.199219 210.851562 173.308594 210.902344 C 173.171875 211.015625 173.035156 211.074219 172.929688 211.09375 C 172.941406 211.179688 172.953125 211.265625 172.960938 211.351562 C 172.886719 211.316406 172.816406 211.28125 172.742188 211.246094 C 171.308594 210.5625 169.695312 209.882812 168.398438 209.417969 C 168.070312 210.984375 167.757812 212.636719 167.476562 214.152344 C 167.355469 214.800781 167.238281 215.425781 167.125 216.003906 C 166.949219 215.945312 166.773438 215.882812 166.597656 215.820312 C 166.703125 215.265625 166.8125 214.675781 166.929688 214.058594 C 167.21875 212.519531 167.535156 210.828125 167.871094 209.234375 C 165.914062 208.574219 164.15625 208.191406 162.246094 207.953125 C 162.273438 207.773438 162.296875 207.589844 162.324219 207.40625 C 164.242188 207.644531 166.015625 208.027344 167.988281 208.6875 C 170.441406 197.25 173.917969 183.003906 175.769531 175.667969 C 175.96875 175.625 176.171875 175.582031 176.375 175.535156 C 174.542969 182.792969 170.996094 197.285156 168.515625 208.871094 Z M 168.515625 208.871094 " fill-opacity="1" fill-rule="nonzero"/><g clip-path="url(#12258c1e57)"><path fill="#3a3683" d="M 68.535156 176.046875 C 67.925781 176.066406 67.445312 176.578125 67.464844 177.1875 C 68.003906 194.46875 82.128906 208.3125 99.472656 208.3125 C 109.882812 208.3125 120.441406 203.265625 126.171875 194.351562 L 127.007812 198.507812 C 127.128906 199.105469 127.710938 199.496094 128.308594 199.375 C 128.90625 199.253906 129.292969 198.667969 129.171875 198.066406 L 127.878906 191.65625 C 127.789062 191.210938 127.539062 190.839844 127.210938 190.589844 C 126.703125 190.210938 125.984375 190.105469 125.351562 190.429688 L 119.035156 193.667969 C 118.492188 193.945312 118.277344 194.613281 118.554688 195.160156 C 118.832031 195.703125 119.496094 195.921875 120.039062 195.640625 L 124.015625 193.605469 C 118.675781 201.523438 109.0625 206.09375 99.472656 206.09375 C 83.324219 206.09375 70.175781 193.207031 69.671875 177.117188 C 69.652344 176.507812 69.144531 176.027344 68.535156 176.046875 Z M 68.535156 176.046875 " fill-opacity="1" fill-rule="evenodd"/></g><path fill="#3a3683" d="M 131.085938 172.859375 C 131.695312 172.839844 132.171875 172.328125 132.152344 171.714844 C 131.613281 154.433594 117.492188 140.59375 100.144531 140.59375 C 89.734375 140.59375 79.179688 145.636719 73.449219 154.550781 L 72.609375 150.398438 C 72.492188 149.796875 71.90625 149.410156 71.308594 149.53125 C 70.710938 149.652344 70.324219 150.238281 70.445312 150.835938 L 71.738281 157.25 C 71.828125 157.695312 72.078125 158.066406 72.410156 158.316406 C 72.917969 158.695312 73.632812 158.800781 74.265625 158.472656 L 80.582031 155.238281 C 81.125 154.957031 81.34375 154.292969 81.066406 153.746094 C 80.789062 153.199219 80.121094 152.984375 79.578125 153.261719 L 75.605469 155.300781 C 80.941406 147.378906 90.558594 142.808594 100.144531 142.808594 C 116.292969 142.808594 129.445312 155.699219 129.945312 171.785156 C 129.964844 172.398438 130.476562 172.878906 131.085938 172.859375 Z M 131.085938 172.859375 " fill-opacity="1" fill-rule="evenodd"/><path fill="#02dcb0" d="M 100.128906 189.671875 C 92.136719 189.671875 85.65625 183.167969 85.65625 175.144531 C 85.65625 167.117188 92.136719 160.613281 100.128906 160.613281 C 108.121094 160.613281 114.601562 167.117188 114.601562 175.144531 C 114.601562 183.167969 108.121094 189.671875 100.128906 189.671875 Z M 100.128906 185.710938 C 94.316406 185.710938 89.601562 180.980469 89.601562 175.144531 C 89.601562 169.308594 94.316406 164.574219 100.128906 164.574219 C 105.941406 164.574219 110.65625 169.308594 110.65625 175.144531 C 110.65625 180.980469 105.941406 185.710938 100.128906 185.710938 Z M 100.128906 185.710938 " fill-opacity="1" fill-rule="evenodd"/><path fill="#02dcb0" d="M 100.128906 194.292969 C 89.589844 194.292969 81.050781 185.71875 81.050781 175.140625 C 81.050781 164.566406 89.589844 155.988281 100.128906 155.988281 C 110.664062 155.988281 119.207031 164.566406 119.207031 175.140625 C 119.207031 185.71875 110.664062 194.292969 100.128906 194.292969 Z M 100.128906 190.992188 C 91.40625 190.992188 84.339844 183.894531 84.339844 175.140625 C 84.339844 166.386719 91.40625 159.292969 100.128906 159.292969 C 108.847656 159.292969 115.917969 166.386719 115.917969 175.140625 C 115.917969 183.894531 108.847656 190.992188 100.128906 190.992188 Z M 100.128906 190.992188 " fill-opacity="1" fill-rule="evenodd"/><path fill="#02dcb0" d="M 79.015625 161.996094 L 85.984375 163.585938 L 82.035156 171.839844 L 76.046875 167.410156 C 75.898438 167.300781 75.855469 167.09375 75.945312 166.933594 L 78.613281 162.175781 C 78.691406 162.03125 78.855469 161.957031 79.015625 161.996094 Z M 79.015625 161.996094 " fill-opacity="1" fill-rule="nonzero"/><path fill="#02dcb0" d="M 122.554688 163.976562 L 115.585938 165.566406 L 118.636719 174.050781 L 125.503906 169.390625 C 125.660156 169.28125 125.710938 169.070312 125.617188 168.902344 L 122.957031 164.15625 C 122.878906 164.011719 122.714844 163.941406 122.554688 163.976562 Z M 122.554688 163.976562 " fill-opacity="1" fill-rule="nonzero"/><path fill="#02dcb0" d="M 108.277344 151.964844 L 103.5 157.300781 L 111.46875 161.757812 L 113.8125 154.671875 C 113.871094 154.496094 113.789062 154.300781 113.621094 154.222656 L 108.710938 151.878906 C 108.5625 151.808594 108.386719 151.84375 108.277344 151.964844 Z M 108.277344 151.964844 " fill-opacity="1" fill-rule="nonzero"/><path fill="#02dcb0" d="M 88.484375 153.3125 L 89.28125 160.445312 L 97.890625 157.421875 L 94.175781 150.957031 C 94.082031 150.796875 93.882812 150.730469 93.710938 150.800781 L 88.703125 152.933594 C 88.554688 152.996094 88.464844 153.152344 88.484375 153.3125 Z M 88.484375 153.3125 " fill-opacity="1" fill-rule="nonzero"/><path fill="#02dcb0" d="M 75.347656 180.316406 L 81.722656 177.074219 L 84.996094 185.710938 L 76.511719 186.378906 C 76.324219 186.394531 76.15625 186.261719 76.121094 186.074219 L 75.148438 180.710938 C 75.121094 180.550781 75.199219 180.390625 75.347656 180.316406 Z M 75.347656 180.316406 " fill-opacity="1" fill-rule="nonzero"/><path fill="#02dcb0" d="M 123.316406 183.023438 L 118.191406 178.023438 L 112.503906 185.289062 L 120.402344 188.460938 C 120.578125 188.53125 120.777344 188.457031 120.867188 188.289062 L 123.386719 183.460938 C 123.460938 183.316406 123.433594 183.136719 123.316406 183.023438 Z M 123.316406 183.023438 " fill-opacity="1" fill-rule="nonzero"/><path fill="#02dcb0" d="M 86.28125 196.074219 L 88.0625 189.125 L 96.6875 192.355469 L 91.589844 199.195312 C 91.476562 199.347656 91.265625 199.386719 91.105469 199.289062 L 86.449219 196.484375 C 86.308594 196.398438 86.242188 196.234375 86.28125 196.074219 Z M 86.28125 196.074219 " fill-opacity="1" fill-rule="nonzero"/><path fill="#02dcb0" d="M 110.972656 197.527344 L 111.023438 190.351562 L 101.863281 191.253906 L 105.046875 199.175781 C 105.117188 199.351562 105.308594 199.445312 105.488281 199.394531 L 110.707031 197.878906 C 110.863281 197.832031 110.972656 197.691406 110.972656 197.527344 Z M 110.972656 197.527344 " fill-opacity="1" fill-rule="nonzero"/><path fill="#fe8d00" d="M 107.972656 131.730469 C 107.972656 145.554688 119.183594 156.761719 133.011719 156.761719 C 146.84375 156.761719 158.054688 145.554688 158.054688 131.730469 C 158.054688 117.910156 146.84375 106.703125 133.011719 106.703125 C 119.183594 106.703125 107.972656 117.910156 107.972656 131.730469 Z M 107.972656 131.730469 " fill-opacity="1" fill-rule="nonzero"/><path fill="#fe8d00" d="M 105.21875 114.53125 L 114.449219 116.628906 L 109.269531 127.417969 L 101.328125 121.570312 C 101.179688 121.457031 101.132812 121.253906 101.226562 121.089844 L 104.816406 114.710938 C 104.894531 114.566406 105.0625 114.496094 105.21875 114.53125 Z M 105.21875 114.53125 " fill-opacity="1" fill-rule="nonzero"/><path fill="#fe8d00" d="M 162.535156 117.121094 L 153.304688 119.21875 L 157.3125 130.304688 L 166.40625 124.15625 C 166.566406 124.046875 166.617188 123.835938 166.523438 123.667969 L 162.9375 117.300781 C 162.859375 117.15625 162.695312 117.082031 162.535156 117.121094 Z M 162.535156 117.121094 " fill-opacity="1" fill-rule="nonzero"/><path fill="#fe8d00" d="M 143.769531 101.378906 L 137.441406 108.414062 L 147.902344 114.238281 L 151.011719 104.882812 C 151.070312 104.707031 150.988281 104.511719 150.816406 104.433594 L 144.203125 101.292969 C 144.054688 101.222656 143.878906 101.257812 143.769531 101.378906 Z M 143.769531 101.378906 " fill-opacity="1" fill-rule="nonzero"/><path fill="#fe8d00" d="M 117.71875 103.121094 L 118.777344 112.523438 L 130.082031 108.574219 L 125.148438 100.039062 C 125.054688 99.875 124.855469 99.808594 124.683594 99.882812 L 117.941406 102.738281 C 117.792969 102.800781 117.703125 102.957031 117.71875 103.121094 Z M 117.71875 103.121094 " fill-opacity="1" fill-rule="nonzero"/><path fill="#fe8d00" d="M 100.410156 138.53125 L 108.855469 134.257812 L 113.152344 145.542969 L 101.917969 146.421875 C 101.726562 146.4375 101.558594 146.308594 101.523438 146.121094 L 100.214844 138.925781 C 100.1875 138.765625 100.265625 138.605469 100.410156 138.53125 Z M 100.410156 138.53125 " fill-opacity="1" fill-rule="nonzero"/><path fill="#fe8d00" d="M 163.511719 142.089844 L 156.722656 135.496094 L 149.257812 144.992188 L 159.722656 149.179688 C 159.898438 149.25 160.097656 149.175781 160.1875 149.007812 L 163.582031 142.527344 C 163.65625 142.382812 163.628906 142.207031 163.511719 142.089844 Z M 163.511719 142.089844 " fill-opacity="1" fill-rule="nonzero"/><path fill="#fe8d00" d="M 114.820312 159.171875 L 117.179688 150.007812 L 128.5 154.226562 L 121.746094 163.25 C 121.632812 163.398438 121.421875 163.441406 121.261719 163.34375 L 114.988281 159.578125 C 114.847656 159.496094 114.78125 159.328125 114.820312 159.171875 Z M 114.820312 159.171875 " fill-opacity="1" fill-rule="nonzero"/><path fill="#fe8d00" d="M 147.25 161.070312 L 147.316406 151.609375 L 135.292969 152.785156 L 139.507812 163.238281 C 139.578125 163.414062 139.769531 163.507812 139.953125 163.453125 L 146.980469 161.421875 C 147.136719 161.378906 147.246094 161.234375 147.25 161.070312 Z M 147.25 161.070312 " fill-opacity="1" fill-rule="nonzero"/><path fill="#ffffff" d="M 112.695312 132.03125 C 112.695312 143.066406 121.648438 152.015625 132.6875 152.015625 C 143.730469 152.015625 152.679688 143.066406 152.679688 132.03125 C 152.679688 120.992188 143.730469 112.046875 132.6875 112.046875 C 121.648438 112.046875 112.695312 120.992188 112.695312 132.03125 Z M 112.695312 132.03125 " fill-opacity="1" fill-rule="nonzero"/><path fill="#ffccba" d="M 132.6875 133.28125 L 132.6875 114.546875 C 124.898438 114.546875 118.386719 120.03125 116.808594 127.347656 Z M 132.6875 133.28125 " fill-opacity="1" fill-rule="nonzero"/><path fill="#3a3683" d="M 143.402344 115.011719 C 143.316406 114.957031 143.203125 114.988281 143.152344 115.074219 L 140.339844 119.757812 C 140.285156 119.84375 140.316406 119.960938 140.402344 120.011719 C 140.488281 120.0625 140.605469 120.035156 140.65625 119.949219 L 143.46875 115.265625 C 143.519531 115.175781 143.492188 115.0625 143.402344 115.011719 Z M 150.476562 122.984375 C 150.425781 122.898438 150.3125 122.867188 150.222656 122.914062 L 145.40625 125.625 C 145.316406 125.675781 145.285156 125.789062 145.335938 125.875 C 145.382812 125.964844 145.496094 125.996094 145.585938 125.945312 L 150.402344 123.238281 C 150.492188 123.1875 150.523438 123.074219 150.476562 122.984375 Z M 118.503906 133.28125 C 118.503906 133.175781 118.421875 133.09375 118.320312 133.09375 L 112.859375 133.09375 C 112.757812 133.09375 112.675781 133.175781 112.675781 133.28125 C 112.675781 133.382812 112.757812 133.464844 112.859375 133.464844 L 118.320312 133.464844 C 118.421875 133.464844 118.503906 133.382812 118.503906 133.28125 Z M 152.550781 133.589844 C 152.550781 133.488281 152.46875 133.40625 152.367188 133.40625 L 147.371094 133.40625 C 147.265625 133.40625 147.183594 133.488281 147.183594 133.589844 C 147.183594 133.695312 147.265625 133.777344 147.371094 133.777344 L 152.367188 133.777344 C 152.46875 133.777344 152.550781 133.695312 152.550781 133.589844 Z M 144.09375 140.664062 C 144.035156 140.75 144.054688 140.863281 144.136719 140.921875 L 148.511719 144.046875 C 148.59375 144.105469 148.710938 144.085938 148.769531 144.003906 C 148.828125 143.917969 148.808594 143.804688 148.726562 143.746094 L 144.351562 140.621094 C 144.269531 140.5625 144.15625 140.582031 144.09375 140.664062 Z M 121.28125 140.664062 C 121.222656 140.582031 121.105469 140.5625 121.023438 140.621094 L 116.652344 143.746094 C 116.566406 143.804688 116.546875 143.917969 116.609375 144.003906 C 116.667969 144.085938 116.78125 144.105469 116.867188 144.046875 L 121.238281 140.921875 C 121.320312 140.863281 121.339844 140.75 121.28125 140.664062 Z M 127.445312 145.910156 C 127.351562 145.871094 127.246094 145.917969 127.207031 146.011719 L 125.394531 150.542969 C 125.355469 150.636719 125.402344 150.746094 125.496094 150.78125 C 125.59375 150.820312 125.699219 150.773438 125.738281 150.679688 L 127.550781 146.148438 C 127.589844 146.054688 127.542969 145.949219 127.445312 145.910156 Z M 135.78125 146.210938 C 135.679688 146.230469 135.613281 146.324219 135.628906 146.425781 L 136.53125 151.539062 C 136.550781 151.640625 136.644531 151.707031 136.746094 151.6875 C 136.847656 151.671875 136.914062 151.574219 136.898438 151.476562 L 135.996094 146.363281 C 135.976562 146.261719 135.878906 146.195312 135.78125 146.210938 Z M 135.78125 146.210938 " fill-opacity="1" fill-rule="evenodd"/><path fill="#3a3683" d="M 133.003906 115.863281 C 132.695312 115.863281 132.449219 116.113281 132.449219 116.417969 L 132.449219 133.007812 L 126.015625 130.574219 C 125.726562 130.46875 125.40625 130.609375 125.300781 130.898438 C 125.191406 131.183594 125.335938 131.503906 125.621094 131.613281 L 132.449219 134.195312 L 132.449219 137.339844 C 132.449219 137.644531 132.695312 137.894531 133.003906 137.894531 C 133.308594 137.894531 133.558594 137.644531 133.558594 137.339844 L 133.558594 134.613281 L 137.179688 135.984375 C 137.464844 136.09375 137.785156 135.949219 137.894531 135.660156 C 138.003906 135.375 137.859375 135.054688 137.570312 134.945312 L 133.558594 133.429688 L 133.558594 116.417969 C 133.558594 116.113281 133.308594 115.863281 133.003906 115.863281 Z M 133.003906 115.863281 " fill-opacity="1" fill-rule="evenodd"/><path fill="#3a3683" d="M 122.457031 84.191406 C 122.824219 84.066406 123.199219 83.941406 123.578125 83.816406 L 123.460938 83.46875 C 123.082031 83.59375 122.707031 83.714844 122.339844 83.839844 Z M 118.152344 85.679688 C 118.847656 85.429688 119.566406 85.179688 120.304688 84.921875 L 120.183594 84.574219 C 119.445312 84.828125 118.726562 85.082031 118.027344 85.332031 Z M 113.886719 87.277344 C 114.578125 87.003906 115.296875 86.730469 116.042969 86.453125 L 115.914062 86.105469 C 115.164062 86.386719 114.445312 86.660156 113.753906 86.929688 Z M 109.71875 88.996094 C 110.375 88.707031 111.070312 88.414062 111.796875 88.113281 L 111.65625 87.773438 C 110.925781 88.074219 110.230469 88.367188 109.570312 88.65625 Z M 100.246094 89.371094 C 100.984375 89.390625 101.703125 89.441406 102.394531 89.519531 L 102.433594 89.152344 C 101.734375 89.074219 101.003906 89.023438 100.257812 89.003906 Z M 95.941406 89.605469 C 96.667969 89.507812 97.386719 89.441406 98.089844 89.402344 L 98.070312 89.035156 C 97.355469 89.070312 96.628906 89.140625 95.890625 89.238281 Z M 106.152344 90.246094 C 105.636719 90.097656 105.09375 89.964844 104.527344 89.851562 L 104.601562 89.488281 C 105.320312 89.632812 106 89.808594 106.640625 90.003906 C 106.910156 89.875 107.1875 89.742188 107.46875 89.605469 L 107.628906 89.941406 C 106.898438 90.285156 106.21875 90.621094 105.585938 90.945312 L 105.417969 90.617188 C 105.65625 90.496094 105.898438 90.371094 106.152344 90.246094 Z M 91.730469 90.507812 C 92.433594 90.300781 93.128906 90.125 93.820312 89.976562 L 93.742188 89.613281 C 93.042969 89.765625 92.335938 89.945312 91.625 90.15625 Z M 108.617188 91.144531 C 109.34375 91.476562 109.964844 91.835938 110.472656 92.203125 L 110.691406 91.902344 C 110.160156 91.519531 109.515625 91.148438 108.773438 90.808594 Z M 87.699219 92.046875 C 88.363281 91.734375 89.027344 91.453125 89.6875 91.203125 L 89.554688 90.859375 C 88.886719 91.113281 88.214844 91.398438 87.542969 91.714844 Z M 101.707031 93.222656 C 102.257812 92.84375 102.886719 92.445312 103.601562 92.03125 L 103.414062 91.710938 C 102.691406 92.128906 102.054688 92.535156 101.496094 92.921875 Z M 83.9375 94.164062 C 84.550781 93.757812 85.167969 93.382812 85.78125 93.039062 L 85.601562 92.714844 C 84.976562 93.066406 84.355469 93.445312 83.734375 93.855469 Z M 111.867188 93.710938 C 112.023438 94.046875 112.054688 94.351562 111.96875 94.628906 C 111.859375 94.976562 111.703125 95.300781 111.5 95.609375 L 111.808594 95.808594 C 112.027344 95.476562 112.199219 95.121094 112.320312 94.738281 C 112.4375 94.355469 112.386719 93.953125 112.203125 93.554688 Z M 98.664062 96.367188 C 98.839844 95.875 99.242188 95.296875 99.9375 94.636719 L 99.679688 94.367188 C 98.964844 95.050781 98.519531 95.671875 98.316406 96.238281 Z M 80.503906 96.773438 C 81.058594 96.292969 81.617188 95.839844 82.175781 95.410156 L 81.953125 95.117188 C 81.386719 95.550781 80.824219 96.007812 80.261719 96.492188 Z M 109.933594 97.140625 C 109.34375 97.535156 108.667969 97.871094 107.941406 98.144531 L 108.070312 98.488281 C 108.820312 98.210938 109.523438 97.863281 110.140625 97.445312 Z M 77.425781 99.789062 C 77.917969 99.246094 78.417969 98.726562 78.917969 98.234375 L 78.660156 97.96875 C 78.152344 98.46875 77.648438 98.992188 77.152344 99.539062 Z M 101.308594 98.871094 C 100.453125 98.730469 99.742188 98.484375 99.257812 98.144531 L 99.042969 98.445312 C 99.59375 98.832031 100.363281 99.09375 101.25 99.238281 Z M 105.777344 98.742188 C 105.027344 98.886719 104.269531 98.972656 103.539062 98.996094 L 103.554688 99.367188 C 104.300781 99.339844 105.078125 99.253906 105.847656 99.105469 Z M 74.695312 103.128906 C 75.128906 102.539062 75.570312 101.96875 76.015625 101.421875 L 75.730469 101.1875 C 75.28125 101.738281 74.835938 102.3125 74.394531 102.910156 Z M 72.289062 106.738281 C 72.671875 106.105469 73.058594 105.496094 73.453125 104.90625 L 73.144531 104.699219 C 72.746094 105.296875 72.359375 105.910156 71.972656 106.546875 Z M 70.695312 109.570312 C 70.867188 109.242188 71.042969 108.917969 71.214844 108.597656 L 70.890625 108.421875 C 70.714844 108.742188 70.542969 109.066406 70.367188 109.398438 Z M 70.695312 109.570312 " fill-opacity="1" fill-rule="evenodd"/><path fill="#fdb5bc" d="M 123.5625 79.617188 L 143.222656 80.433594 L 123.972656 82.890625 L 124.230469 84.558594 L 124.710938 87.695312 C 124.753906 87.957031 125.03125 88.113281 125.277344 88.007812 L 143.222656 80.433594 L 123.375 73.09375 C 123.085938 72.988281 122.789062 73.222656 122.824219 73.527344 Z M 123.5625 79.617188 " fill-opacity="1" fill-rule="nonzero"/><path fill="#f798a2" d="M 123.5625 79.617188 L 143.222656 80.433594 L 123.972656 82.890625 L 120.9375 84.972656 C 120.796875 84.832031 120.765625 84.613281 120.863281 84.4375 Z M 123.5625 79.617188 " fill-opacity="1" fill-rule="nonzero"/><path fill="#fa6e7e" d="M 121.34375 85.097656 C 121.195312 85.125 121.042969 85.078125 120.9375 84.972656 L 123.972656 82.890625 L 124.230469 84.558594 Z M 121.34375 85.097656 " fill-opacity="1" fill-rule="nonzero"/></svg>