<svg xmlns="http://www.w3.org/2000/svg" xmlns:xlink="http://www.w3.org/1999/xlink" width="300" zoomAndPan="magnify" viewBox="0 0 224.87999 225" height="300" preserveAspectRatio="xMidYMid meet" version="1.0"><defs><clipPath id="f497897482"><path d="M 22 192 L 49 192 L 49 224.9375 L 22 224.9375 Z M 22 192 " clip-rule="nonzero"/></clipPath><clipPath id="3e7fb92621"><path d="M 61 185 L 88 185 L 88 224.9375 L 61 224.9375 Z M 61 185 " clip-rule="nonzero"/></clipPath><clipPath id="de46754a9f"><path d="M 100 171 L 127 171 L 127 224.9375 L 100 224.9375 Z M 100 171 " clip-rule="nonzero"/></clipPath><clipPath id="feb7875ae5"><path d="M 138 142 L 166 142 L 166 224.9375 L 138 224.9375 Z M 138 142 " clip-rule="nonzero"/></clipPath><clipPath id="cefbc23477"><path d="M 8.304688 63.117188 L 90 63.117188 L 90 145 L 8.304688 145 Z M 8.304688 63.117188 " clip-rule="nonzero"/></clipPath><clipPath id="9ef7a9cfda"><path d="M 146 0.0585938 L 160 0.0585938 L 160 54 L 146 54 Z M 146 0.0585938 " clip-rule="nonzero"/></clipPath><clipPath id="428d139ed4"><path d="M 133 25 L 194 25 L 194 72.769531 L 133 72.769531 Z M 133 25 " clip-rule="nonzero"/></clipPath><clipPath id="98759fa2bb"><path d="M 112.132812 48 L 137 48 L 137 72.769531 L 112.132812 72.769531 Z M 112.132812 48 " clip-rule="nonzero"/></clipPath><clipPath id="41340502c5"><path d="M 159 32 L 224.574219 32 L 224.574219 72.769531 L 159 72.769531 Z M 159 32 " clip-rule="nonzero"/></clipPath></defs><path fill="#12cc1a" d="M 28.148438 174.433594 L 28.210938 174.433594 C 80.222656 173.941406 126.300781 146.476562 150.242188 102.34375 L 154.644531 115.535156 C 155.578125 118.332031 158.179688 120.097656 160.976562 120.097656 C 161.675781 120.097656 162.390625 119.988281 163.089844 119.753906 C 166.589844 118.585938 168.476562 114.804688 167.308594 111.308594 L 157.859375 83.007812 C 156.699219 79.511719 152.90625 77.621094 149.417969 78.789062 L 121.109375 88.234375 C 117.605469 89.402344 115.722656 93.183594 116.890625 96.679688 C 118.054688 100.179688 121.832031 102.085938 125.332031 100.898438 L 138.1875 96.609375 C 116.460938 136.105469 74.945312 160.640625 28.082031 161.082031 C 24.398438 161.113281 21.4375 164.132812 21.472656 167.824219 C 21.503906 171.488281 24.488281 174.433594 28.148438 174.433594 Z M 28.148438 174.433594 " fill-opacity="1" fill-rule="nonzero"/><g clip-path="url(#f497897482)"><path fill="#12cc1a" d="M 44.179688 192.1875 L 27.21875 192.1875 C 24.558594 192.1875 22.402344 194.339844 22.402344 197 L 22.402344 220.121094 C 22.402344 222.78125 24.558594 224.9375 27.21875 224.9375 L 44.179688 224.9375 C 46.84375 224.9375 49 222.78125 49 220.121094 L 49 197 C 49 194.339844 46.84375 192.1875 44.179688 192.1875 Z M 44.179688 192.1875 " fill-opacity="1" fill-rule="nonzero"/></g><g clip-path="url(#3e7fb92621)"><path fill="#12cc1a" d="M 83.007812 185.125 L 66.046875 185.125 C 63.386719 185.125 61.230469 187.28125 61.230469 189.941406 L 61.230469 220.121094 C 61.230469 222.78125 63.386719 224.9375 66.046875 224.9375 L 83.007812 224.9375 C 85.667969 224.9375 87.824219 222.78125 87.824219 220.121094 L 87.824219 189.941406 C 87.824219 187.28125 85.667969 185.125 83.007812 185.125 Z M 83.007812 185.125 " fill-opacity="1" fill-rule="nonzero"/></g><g clip-path="url(#de46754a9f)"><path fill="#12cc1a" d="M 121.835938 171.003906 L 104.875 171.003906 C 102.214844 171.003906 100.058594 173.164062 100.058594 175.824219 L 100.058594 220.121094 C 100.058594 222.78125 102.214844 224.9375 104.875 224.9375 L 121.835938 224.9375 C 124.496094 224.9375 126.652344 222.78125 126.652344 220.121094 L 126.652344 175.824219 C 126.652344 173.164062 124.496094 171.003906 121.835938 171.003906 Z M 121.835938 171.003906 " fill-opacity="1" fill-rule="nonzero"/></g><g clip-path="url(#feb7875ae5)"><path fill="#12cc1a" d="M 160.664062 142.769531 L 143.699219 142.769531 C 141.039062 142.769531 138.882812 144.925781 138.882812 147.585938 L 138.882812 220.121094 C 138.882812 222.78125 141.039062 224.9375 143.699219 224.9375 L 160.664062 224.9375 C 163.324219 224.9375 165.480469 222.78125 165.480469 220.121094 L 165.480469 147.585938 C 165.480469 144.925781 163.324219 142.769531 160.664062 142.769531 Z M 160.664062 142.769531 " fill-opacity="1" fill-rule="nonzero"/></g><g clip-path="url(#cefbc23477)"><path fill="#12cc1a" d="M 89.972656 103.941406 C 89.972656 81.398438 71.695312 63.117188 49.148438 63.117188 C 26.605469 63.117188 8.328125 81.398438 8.328125 103.941406 C 8.328125 126.488281 26.605469 144.761719 49.148438 144.761719 C 71.695312 144.761719 89.972656 126.488281 89.972656 103.941406 Z M 32.253906 112.953125 L 28.019531 112.953125 C 26.179688 112.953125 24.691406 111.464844 24.691406 109.625 C 24.691406 107.785156 26.179688 106.300781 28.019531 106.300781 L 30.90625 106.300781 C 30.839844 105.507812 30.695312 104.742188 30.695312 103.929688 C 30.695312 103.121094 30.835938 102.363281 30.90625 101.574219 L 28.019531 101.574219 C 26.179688 101.574219 24.691406 100.089844 24.691406 98.25 C 24.691406 96.410156 26.179688 94.921875 28.019531 94.921875 L 32.25 94.921875 C 35.414062 85.882812 43.152344 79.460938 52.21875 79.460938 C 57.332031 79.460938 62.121094 81.429688 66.050781 85.160156 C 67.648438 86.679688 67.714844 89.207031 66.199219 90.804688 C 64.671875 92.394531 62.152344 92.453125 60.554688 90.953125 C 58.140625 88.652344 55.253906 87.441406 52.21875 87.441406 C 47.484375 87.441406 43.324219 90.425781 40.898438 94.921875 L 53.527344 94.921875 C 55.363281 94.921875 56.851562 96.410156 56.851562 98.25 C 56.851562 100.089844 55.363281 101.574219 53.527344 101.574219 L 38.871094 101.574219 C 38.777344 102.347656 38.675781 103.121094 38.675781 103.929688 C 38.675781 104.742188 38.777344 105.519531 38.871094 106.300781 L 53.527344 106.300781 C 55.363281 106.300781 56.851562 107.785156 56.851562 109.625 C 56.851562 111.464844 55.363281 112.953125 53.527344 112.953125 L 40.902344 112.953125 C 43.324219 117.453125 47.488281 120.445312 52.21875 120.445312 C 55.261719 120.445312 58.125 119.234375 60.515625 116.960938 C 62.113281 115.445312 64.644531 115.5 66.160156 117.097656 C 67.683594 118.695312 67.617188 121.222656 66.023438 122.742188 C 62.179688 126.40625 57.273438 128.421875 52.21875 128.421875 C 43.15625 128.421875 35.421875 121.996094 32.253906 112.953125 Z M 32.253906 112.953125 " fill-opacity="1" fill-rule="nonzero"/></g><path fill="#00003c" d="M 175.910156 9.460938 L 175.910156 17.167969 L 169.742188 12.648438 L 169.742188 42.703125 L 155.71875 55.035156 L 155.617188 54.984375 L 155.617188 13.726562 L 159.777344 10.796875 L 169.539062 3.914062 Z M 175.910156 9.460938 " fill-opacity="1" fill-rule="nonzero"/><g clip-path="url(#9ef7a9cfda)"><path fill="#00003c" d="M 159.777344 0.0585938 L 159.777344 8.742188 L 153.921875 12.855469 L 153.921875 53.957031 L 146.625 49.691406 L 146.625 8.488281 Z M 159.777344 0.0585938 " fill-opacity="1" fill-rule="nonzero"/></g><path fill="#00003c" d="M 185.835938 56.484375 L 191.195312 56.484375 L 191.195312 61.839844 L 185.835938 61.839844 Z M 185.835938 56.484375 " fill-opacity="1" fill-rule="nonzero"/><path fill="#00003c" d="M 193.457031 56.484375 L 198.8125 56.484375 L 198.8125 61.839844 L 193.457031 61.839844 Z M 193.457031 56.484375 " fill-opacity="1" fill-rule="nonzero"/><path fill="#00003c" d="M 185.835938 63.898438 L 191.195312 63.898438 L 191.195312 69.253906 L 185.835938 69.253906 Z M 185.835938 63.898438 " fill-opacity="1" fill-rule="nonzero"/><path fill="#00003c" d="M 193.457031 63.898438 L 198.8125 63.898438 L 198.8125 69.253906 L 193.457031 69.253906 Z M 193.457031 63.898438 " fill-opacity="1" fill-rule="nonzero"/><path fill="#00003c" d="M 133.832031 60.242188 L 137.8125 60.242188 L 137.8125 64.222656 L 133.832031 64.222656 Z M 133.832031 60.242188 " fill-opacity="1" fill-rule="nonzero"/><path fill="#00003c" d="M 139.492188 60.242188 L 143.472656 60.242188 L 143.472656 64.222656 L 139.492188 64.222656 Z M 139.492188 60.242188 " fill-opacity="1" fill-rule="nonzero"/><path fill="#00003c" d="M 133.832031 65.75 L 137.8125 65.75 L 137.8125 69.726562 L 133.832031 69.726562 Z M 133.832031 65.75 " fill-opacity="1" fill-rule="nonzero"/><path fill="#00003c" d="M 139.492188 65.75 L 143.472656 65.75 L 143.472656 69.726562 L 139.492188 69.726562 Z M 139.492188 65.75 " fill-opacity="1" fill-rule="nonzero"/><path fill="#00003c" d="M 145.238281 16.242188 L 145.238281 22.304688 L 140.40625 18.554688 L 140.40625 46.042969 L 134.5 42.546875 C 134.5 29.703125 134.5 17.167969 134.5 17.167969 L 140.820312 12.648438 Z M 145.238281 16.242188 " fill-opacity="1" fill-rule="nonzero"/><path fill="#00003c" d="M 189.269531 16.5 L 189.269531 25.59375 L 175.910156 37.308594 L 175.910156 18.554688 L 184.335938 12.648438 Z M 189.269531 16.5 " fill-opacity="1" fill-rule="nonzero"/><g clip-path="url(#428d139ed4)"><path fill="#ffd700" d="M 193.046875 25.902344 L 175.910156 46.761719 L 169.742188 54.878906 L 155.617188 72.863281 L 146.625 61.148438 L 140.40625 53.390625 L 134.5 45.992188 L 133.832031 45.167969 L 134.5 45.578125 L 140.40625 49.023438 L 146.625 52.671875 L 153.921875 56.988281 L 155.617188 57.960938 L 156.027344 58.21875 L 169.742188 46.144531 L 175.910156 40.699219 Z M 193.046875 25.902344 " fill-opacity="1" fill-rule="nonzero"/></g><g clip-path="url(#98759fa2bb)"><path fill="#00003c" d="M 136.714844 53.925781 L 132.40625 48.222656 L 112.144531 72.847656 L 119.445312 72.847656 L 119.4375 72.863281 L 124.996094 72.863281 L 124.996094 67.378906 Z M 136.714844 53.925781 " fill-opacity="1" fill-rule="nonzero"/></g><g clip-path="url(#41340502c5)"><path fill="#00003c" d="M 194.457031 34.792969 L 192.351562 32.070312 L 190.191406 34.792969 L 159.777344 72.863281 L 174.941406 72.863281 L 174.941406 65.886719 L 192.351562 44.039062 L 209.757812 65.9375 L 209.757812 72.863281 L 224.871094 72.863281 Z M 194.457031 34.792969 " fill-opacity="1" fill-rule="nonzero"/></g></svg>